#!OML:ASF F:\VICON\USERDATA\INSTALL\rory3\rory3.ASF
:FULLY-SPECIFIED
:DEGREES
68
root 0.301119 18.6431 6.05977 6.22078 1.63776 5.72683
lowerback 16.9605 -3.70276 -7.95979
upperback -0.560936 -6.59217 -0.920624
thorax -9.34353 -2.78457 5.06475
lowerneck -5.55416 2.56096 -0.0561144
upperneck -9.26957 3.35121 -0.927559
head -1.94282 1.68304 -0.281803
rclavicle -1.59028e-015 1.70955e-014
rhumerus -64.9247 9.93358 -88.2384
rradius 93.4177
rwrist -2.09052
rhand -38.4773 34.6894
rfingers 7.12502
rthumb -11.4996 5.02487
lclavicle -1.59028e-015 1.70955e-014
lhumerus -18.8623 -21.5061 87.8421
lradius 121.166
lwrist 34.3347
lhand -34.1997 7.54035
lfingers 7.12502
lthumb -7.37235 37.3919
rfemur -47.5443 -0.168714 15.1597
rtibia 71.9088
rfoot 11.386 -0.86418
rtoes 5.83338
lfemur 25.8245 -3.93304 -29.2365
ltibia 3.18055e-014
lfoot 27.2203 8.67699
ltoes -25.8696
69
root 0.315771 18.7146 6.60961 6.34735 1.18527 6.01837
lowerback 16.7972 -3.67138 -8.10514
upperback -0.749466 -6.57854 -0.920793
thorax -9.44768 -2.76087 5.13697
lowerneck -5.59422 2.68251 -0.00959724
upperneck -8.8946 3.5109 -0.984738
head -1.81191 1.76158 -0.302146
rclavicle -1.44119e-014 -1.63003e-014
rhumerus -65.5459 9.79676 -87.9203
rradius 93.708
rwrist -2.55888
rhand -38.226 34.2249
rfingers 7.12502
rthumb -11.2573 4.54693
lclavicle -1.44119e-014 -1.63003e-014
lhumerus -19.6794 -22.2841 88.2656
lradius 121.265
lwrist 33.7303
lhand -34.5812 7.66696
lfingers 7.12502
lthumb -7.74061 37.5053
rfemur -47.3723 0.574984 14.5186
rtibia 67.2027
rfoot 11.22 -0.193598
rtoes 3.99276
lfemur 26.9529 -3.83477 -29.7418
ltibia -2.54444e-014
lfoot 26.1115 9.38906
ltoes -34.0101
70
root 0.327224 18.7929 7.16361 6.53092 0.855369 6.22654
lowerback 16.6906 -3.72016 -8.1154
upperback -0.999051 -6.65346 -0.912354
thorax -9.6536 -2.77785 5.17197
lowerneck -5.55455 2.81558 -0.0726748
upperneck -8.58094 3.7004 -0.860136
head -1.72032 1.8557 -0.249888
rclavicle -6.9674e-014 -1.51076e-014
rhumerus -66.2372 9.78944 -87.7259
rradius 94.0423
rwrist -2.90481
rhand -37.6608 33.8029
rfingers 7.12502
rthumb -10.712 4.09596
lclavicle -6.9674e-014 -1.51076e-014
lhumerus -20.6582 -22.7584 88.6729
lradius 121.221
lwrist 32.8461
lhand -34.6654 6.92627
lfingers 7.12502
lthumb -7.82184 36.7616
rfemur -46.9527 1.20313 13.9818
rtibia 62.3435
rfoot 10.1674 0.54197
rtoes 3.44172
lfemur 27.6458 -3.85439 -30.1545
ltibia 1.27222e-014
lfoot 27.5808 8.75591
ltoes -38.5315
71
root 0.337257 18.8454 7.70979 6.68029 0.642527 6.39678
lowerback 16.8006 -3.80605 -7.94956
upperback -1.38304 -6.78033 -0.963217
thorax -10.1548 -2.80849 5.08643
lowerneck -5.23236 2.86947 -0.071436
upperneck -8.34578 3.78103 -0.728521
head -1.70147 1.8941 -0.212019
rclavicle -1.08487e-013 5.96354e-016
rhumerus -67.1525 9.801 -87.7011
rradius 94.3385
rwrist -3.06204
rhand -37.4183 33.8105
rfingers 7.12502
rthumb -10.4782 4.09167
lclavicle -1.08487e-013 5.96354e-016
lhumerus -21.6637 -23.6043 89.0401
lradius 121.413
lwrist 32.7717
lhand -34.5538 6.94128
lfingers 7.12502
lthumb -7.71412 36.7806
rfemur -46.3867 1.75948 13.4658
rtibia 57.4621
rfoot 8.91506 0.427107
rtoes 5.00213
lfemur 29.2938 -3.9254 -30.683
ltibia -1.145e-013
lfoot 33.4559 8.51647
ltoes -24.1987
72
root 0.345328 18.8922 8.25096 6.71905 0.518491 6.80862
lowerback 16.8644 -3.83392 -8.11508
upperback -1.50604 -6.87888 -1.07343
thorax -10.3133 -2.83632 5.09297
lowerneck -5.11551 2.89718 -0.0952939
upperneck -8.27527 3.83143 -0.511426
head -1.70344 1.91666 -0.142262
rclavicle -1.68967e-015 -3.49861e-014
rhumerus -67.4474 9.72766 -87.5941
rradius 94.6017
rwrist -3.16015
rhand -37.717 34.1549
rfingers 7.12502
rthumb -10.7663 4.45079
lclavicle -1.68967e-015 -3.49861e-014
lhumerus -22.1832 -24.5002 89.1877
lradius 121.326
lwrist 31.4709
lhand -34.0379 7.52391
lfingers 7.12502
lthumb -7.21615 37.3809
rfemur -45.5739 2.38499 12.6202
rtibia 52.4982
rfoot 8.53316 0.0194119
rtoes 4.54266
lfemur 30.7934 -4.08467 -31.443
ltibia 6.67916e-014
lfoot 35.0427 7.94107
ltoes -16.5246
73
root 0.355207 18.9341 8.79727 6.69198 0.421203 7.52956
lowerback 16.2713 -3.74763 -8.53232
upperback -0.288622 -6.70869 -1.28784
thorax -8.62053 -2.87548 4.92559
lowerneck -9.49673 2.89103 -0.103772
upperneck -7.23503 3.82557 -0.3129
head -0.672085 1.90673 0.00148852
rclavicle -9.10931e-014 -7.95139e-016
rhumerus -64.8438 9.16377 -86.9812
rradius 94.5878
rwrist -3.22524
rhand -37.6209 34.4925
rfingers 7.12502
rthumb -10.6736 4.78359
lclavicle -9.10931e-014 -7.95139e-016
lhumerus -20.0195 -25.5834 88.2981
lradius 121.115
lwrist 30.4985
lhand -33.394 8.36534
lfingers 7.12502
lthumb -6.59455 38.2427
rfemur -44.5665 3.09423 11.3156
rtibia 47.6299
rfoot 8.7348 -0.0985151
rtoes 6.99132
lfemur 32.1467 -4.26513 -32.5664
ltibia -9.54166e-014
lfoot 34.4176 6.68266
ltoes -16.4695
74
root 0.366319 18.9721 9.3486 6.45857 0.406761 8.36931
lowerback 16.3083 -3.71737 -9.07729
upperback -0.512957 -6.81829 -1.53083
thorax -8.84704 -2.88881 5.00113
lowerneck -7.41652 2.89438 -0.0385708
upperneck -8.25774 3.82485 -0.409316
head -1.31726 1.90768 -0.0817728
rclavicle 7.4097e-014 3.3197e-014
rhumerus -65.3337 8.95657 -86.8059
rradius 94.6477
rwrist -3.21435
rhand -37.3327 34.4101
rfingers 7.12502
rthumb -10.3956 4.68708
lclavicle 7.4097e-014 3.3197e-014
lhumerus -21.64 -26.3412 89.0913
lradius 121.192
lwrist 29.6453
lhand -33.3243 8.50286
lfingers 7.12502
lthumb -6.52724 38.3823
rfemur -43.1433 3.93803 9.7926
rtibia 42.9103
rfoot 8.08688 -1.50752
rtoes 3.26814
lfemur 33.4616 -4.4736 -33.8389
ltibia 6.36111e-015
lfoot 34.8582 5.64768
ltoes -16.909
